<svg xmlns="http://www.w3.org/2000/svg" viewBox="0 0 320 320" fill="none">
  <defs>
    <linearGradient id="fg" x1="0" y1="1" x2="1" y2="0">
      <stop offset="0" stop-color="#8A6428"/>
      <stop offset=".4" stop-color="#D6A952"/>
      <stop offset=".7" stop-color="#F8DDA7"/>
      <stop offset="1" stop-color="#C08A3E"/>
    </linearGradient>
    <linearGradient id="thermal" x1="0" y1="1" x2="0" y2="0">
      <stop offset="0" stop-color="#3E3320"/>
      <stop offset=".45" stop-color="#B0803A"/>
      <stop offset="1" stop-color="#F8DDA7"/>
    </linearGradient>
  </defs>

  <!-- Infrarot-Wellen -->
  <g stroke="url(#fg)" stroke-width="3" stroke-linecap="round">
    <path d="M58 96a34 34 0 0 0 0 44" opacity=".95"/>
    <path d="M40 84a56 56 0 0 0 0 68" opacity=".6"/>
    <path d="M24 72a80 80 0 0 0 0 92" opacity=".3"/>
  </g>

  <!-- Kamerakopf -->
  <rect x="80" y="62" width="152" height="100" rx="20" fill="#0B1017" stroke="#A08A5E" stroke-width="3"/>
  <!-- Objektiv -->
  <circle cx="96" cy="112" r="29" fill="#0B1017" stroke="#A08A5E" stroke-width="3"/>
  <circle cx="96" cy="112" r="18" stroke="url(#fg)" stroke-width="3"/>
  <circle cx="96" cy="112" r="7" fill="url(#fg)" opacity=".9"/>

  <!-- Display mit Waermebild -->
  <rect x="196" y="70" width="52" height="84" rx="9" fill="#0B1017" stroke="#A08A5E" stroke-width="3"/>
  <rect x="205" y="79" width="34" height="66" rx="4" fill="url(#thermal)"/>

  <!-- Griff -->
  <path d="M126 162 L118 244 a16 16 0 0 0 16 18 l26 0 a16 16 0 0 0 16-14 l10 -86 Z" fill="#0B1017" stroke="#A08A5E" stroke-width="3" stroke-linejoin="round"/>
  <path d="M124 178c-9 3-13 12-10 21" stroke="#A08A5E" stroke-width="3" stroke-linecap="round"/>
  <g stroke="#A08A5E" stroke-width="2" opacity=".4" stroke-linecap="round">
    <line x1="132" y1="216" x2="164" y2="216"/>
    <line x1="130" y1="228" x2="162" y2="228"/>
    <line x1="129" y1="240" x2="160" y2="240"/>
  </g>
</svg>
